
<svg version="1.1"
	 xmlns="http://www.w3.org/2000/svg" xmlns:xlink="http://www.w3.org/1999/xlink" x="0px" y="0px" viewBox="0 0 131 236"
	 style="enable-background:new 0 0 131 236;" xml:space="preserve">

<path class="st0" d="M0,168.8c0,44.7,16.8,66.6,63,66.6c44.7,0,67.5-26.7,67.5-69.9c0-32.1-11.1-47.1-34.2-56.1
	c23.1-9.6,30.9-32.7,30.9-50.4c0-39.9-27-58.8-61.8-58.8C24,0.8,2.7,22.4,2.7,64.1h27c0-29.4,15-38.7,35.4-38.7
	c22.8,0,34.5,12.3,34.5,33.3c0,21.9-22.5,37.5-39.3,38.1H43.8V122h16.5c21.9,0,40.2,10.5,40.2,43.8c0,30.9-13.2,41.7-37.8,41.7
	c-25.2,0-34.8-11.4-34.8-38.7H0z"/>
</svg>
