<?xml version="1.0" encoding="utf-8"?>
<svg version="1.1"
	 xmlns="http://www.w3.org/2000/svg" xmlns:xlink="http://www.w3.org/1999/xlink" x="0px" y="0px" viewBox="0 0 24 24"
	 style="enable-background:new 0 0 24 24;" xml:space="preserve">
<style type="text/css">
	.st0{fill:none;stroke:#000000;stroke-linejoin:round;stroke-miterlimit:10;}
	.st1{fill:none;stroke:#000000;stroke-linecap:round;stroke-linejoin:round;stroke-miterlimit:10;}
	.st2{fill:none;}
</style>
<g>
	<g>
		<path fill="none" stroke="#fff"  d="M21.5,11c-5,2.5-8.4,6.7-9.5,8.2c1.1,1.7,3.1,2.9,5.3,2.9c3.4,0,6.2-2.8,6.2-6.2C23.5,14.1,22.8,12.1,21.5,11
			z"/>
		<path fill="none" stroke="#fff"  d="M2.5,11c4.9,2.5,8.4,6.7,9.5,8.2c-1.1,1.7-3.1,2.9-5.3,2.9c-3.4,0-6.2-2.8-6.2-6.2C0.5,14.1,1.2,12.1,2.5,11z
			"/>
		<line fill="none" stroke="#fff" x1="2.5" y1="11" x2="2.5" y2="4"/>
		<line fill="none" stroke="#fff" x1="21.5" y1="11" x2="21.5" y2="4"/>
	</g>
</g>
<g id="invisible_shape">
	<rect fill="none"  width="24" height="24"/>
</g>
</svg>
