<?xml version="1.0" encoding="utf-8"?>
<!-- Generator: Adobe Illustrator 19.2.0, SVG Export Plug-In . SVG Version: 6.00 Build 0)  -->
<svg version="1.1" id="Слой_1"
	 xmlns="http://www.w3.org/2000/svg" xmlns:xlink="http://www.w3.org/1999/xlink" x="0px" y="0px" viewBox="0 0 24 24"
	 style="enable-background:new 0 0 24 24;" xml:space="preserve">
<g>
	<g>
		<path fill="none" stroke="#fff" d="M23.5,18.5c0,0.5-0.5,1-1,1h-21c-0.6,0-1-0.5-1-1v-12c0-0.6,0.4-1,1-1h21c0.5,0,1,0.4,1,1V18.5z"/>
		<path fill="none" stroke="#fff" d="M3,5.5v-1c0-0.5,0.5-1,1-1h2c0.6,0,1,0.5,1,1v1"/>
		<line fill="none" stroke="#fff" x1="0.5" y1="10.5" x2="8" y2="10.5"/>
		<line fill="none" stroke="#fff" x1="0.5" y1="12.5" x2="8" y2="12.5"/>
		<line fill="none" stroke="#fff" x1="0.5" y1="14.5" x2="8" y2="14.5"/>
		<circle  fill="none" stroke="#fff" cx="16.5" cy="12.5" r="5"/>
		<rect x="14.5" y="10.5" fill="none" stroke="#fff" width="4" height="4"/>
	</g>
</g>
<g>
	<rect fill="none" width="24" height="24"/>
</g>
</svg>
