<?xml version="1.0" encoding="utf-8"?>
<!-- Generator: Adobe Illustrator 16.0.3, SVG Export Plug-In . SVG Version: 6.00 Build 0)  -->
<!DOCTYPE svg PUBLIC "-//W3C//DTD SVG 1.1//EN" "http://www.w3.org/Graphics/SVG/1.1/DTD/svg11.dtd">
<svg version="1.1" xmlns="http://www.w3.org/2000/svg" xmlns:xlink="http://www.w3.org/1999/xlink" x="0px" y="0px" width="24px"
	 height="24px" viewBox="0 0 24 24" enable-background="new 0 0 24 24" xml:space="preserve">
<g >
	<g>
		<g>
			<path fill="none" stroke="#fff" stroke-linecap="round" stroke-linejoin="round" stroke-miterlimit="10" d="M2.5,14.5
				c-1.104,0-2-0.896-2-2s0.896-2,2-2"/>
			<path fill="none" stroke="#fff" stroke-linecap="round" stroke-linejoin="round" stroke-miterlimit="10" d="M14.5,21.5h2
				c1.934,0,3.5-1.066,3.5-3v-1.064"/>

				<circle fill="none" stroke="#fff" stroke-linecap="round" stroke-linejoin="round" stroke-miterlimit="10" cx="13" cy="21.5" r="1.5"/>
			<path fill="none" stroke="#fff" stroke-linecap="round" stroke-linejoin="round" stroke-miterlimit="10" d="M6.5,17.5h-2
				c-1.104,0-2-0.896-2-2v-6c0-1.104,0.896-2,2-2h2V17.5z"/>
			<path fill="none" stroke="#fff" stroke-linecap="round" stroke-linejoin="round" stroke-miterlimit="10" d="M21.5,14.5
				c1.104,0,2-0.896,2-2s-0.896-2-2-2"/>
			<path fill="none" stroke="#fff" stroke-linecap="round" stroke-linejoin="round" stroke-miterlimit="10" d="M17.5,17.5h2
				c1.104,0,2-0.896,2-2v-6c0-1.104-0.896-2-2-2h-2V17.5z"/>
			<path fill="none" stroke="#fff" stroke-linejoin="round" stroke-miterlimit="10" d="M5,7.5c0-3.866,3.134-7,7-7
				c3.865,0,7,3.134,7,7"/>
		</g>
	</g>
	<g>
	</g>
</g>
<g>
	<rect fill="none" width="24" height="24"/>
</g>
</svg>
