<?xml version="1.0" encoding="utf-8"?>
<!-- Generator: Adobe Illustrator 19.2.0, SVG Export Plug-In . SVG Version: 6.00 Build 0)  -->
<svg version="1.1" xmlns="http://www.w3.org/2000/svg" xmlns:xlink="http://www.w3.org/1999/xlink" x="0px" y="0px"
	 viewBox="0 0 380.2 380.2" style="enable-background:new 0 0 380.2 380.2;" xml:space="preserve">
<path stroke="#ffccd5" fill="#ffccd5" d="M163.2,191.7v103.4h-25.3c-8.3,0-15,6.7-15,15V331c0,8.3,6.7,15,15,15h25.3v7.7c0,14.6,9.8,26.5,21.9,26.5
	c12.1,0,21.9-11.9,21.9-26.5V194c45.9-8,80.8-48.2,80.8-96.3C287.8,43.9,244,0,190.1,0S92.3,43.9,92.3,97.8
	C92.3,142.3,122.3,180,163.2,191.7z M190.1,152.8c-30.4,0-55-24.6-55-55s24.6-55,55-55s55,24.6,55,55S220.5,152.8,190.1,152.8z"/>
</svg>
