<?xml version="1.0" encoding="utf-8"?>
<!-- Generator: Adobe Illustrator 19.2.0, SVG Export Plug-In . SVG Version: 6.00 Build 0)  -->
<svg version="1.1"
	 xmlns="http://www.w3.org/2000/svg" xmlns:xlink="http://www.w3.org/1999/xlink" x="0px" y="0px" viewBox="0 0 24 24"
	 style="enable-background:new 0 0 24 24;" xml:space="preserve">
<style type="text/css">
	.st0{fill:none;stroke:#000000;stroke-linecap:round;stroke-linejoin:round;stroke-miterlimit:10;}
	.st1{fill:none;stroke:#000000;stroke-linejoin:round;stroke-miterlimit:10;}
	.st2{fill:none;}
</style>
<g >
	<g>
		<g>
			<polyline fill="none" stroke="#fff" points="8.6,7.1 7.7,12.2 6.9,9.6 6.1,12.2 5.3,7.1 			"/>
			<polyline fill="none" stroke="#fff" points="13.7,7.1 12.8,12.2 12,9.6 11.2,12.2 10.3,7.1 			"/>
			<polyline fill="none" stroke="#fff" points="18.7,7.1 17.9,12.2 17.1,9.6 16.3,12.2 15.4,7.1 			"/>
		</g>
		<g>
			<g>
				<path fill="none" stroke="#fff" d="M23.5,18.9c0,0.9-0.7,1.6-1.5,1.6H2c-0.8,0-1.5-0.7-1.5-1.6V4.1c0-0.9,0.7-1.6,1.5-1.6h20
					c0.8,0,1.5,0.7,1.5,1.6V18.9z"/>
				<line fill="none" stroke="#fff" x1="5" y1="22.5" x2="19" y2="22.5"/>
				<line fill="none" stroke="#fff" x1="11.5" y1="20.5" x2="11.5" y2="22.5"/>
				<circle fill="none" stroke="#fff" cx="12" cy="18.5" r="0.5"/>
				<line fill="none" stroke="#fff" x1="0.5" y1="16.5" x2="23.5" y2="16.5"/>
			</g>
		</g>
	</g>
</g>
<g >
	<rect fill="none"  width="24" height="24"/>
</g>
</svg>
