<?xml version="1.0" encoding="UTF-8"?><!DOCTYPE svg PUBLIC "-//W3C//DTD SVG 1.1//EN" "http://www.w3.org/Graphics/SVG/1.1/DTD/svg11.dtd"><svg xmlns="http://www.w3.org/2000/svg"><symbol id="icon-1" viewBox="0 0 102 233">
    <path d="M.2 232.2h101.7v-24.3H66.2V.6H8.3v25.5h29.4v181.8H.2v24.3z"/>
</symbol><symbol id="icon-12" viewBox="0 0 249 236">
    <path class="st0" d="M150.8 189.3V207h95.7v28.2H121.7v-45.6c0-98.1 97.8-73.2 97.8-128.7 0-22.8-10.8-33.9-35.1-33.9-22.2 0-34.5 12-34.5 38.7h-28.5c0-45 25.5-64.8 64.2-64.8 38.4 0 62.7 18.6 62.7 59.7 0 83.7-97.5 46.8-97.5 128.7zM.2 210.9h37.5V29.1H8.3V3.6h57.9v207.3h35.7v24.3H.2v-24.3z"/>
</symbol><symbol id="icon-3" viewBox="0 0 131 236">
    <path class="st0" d="M0 168.8c0 44.7 16.8 66.6 63 66.6 44.7 0 67.5-26.7 67.5-69.9 0-32.1-11.1-47.1-34.2-56.1 23.1-9.6 30.9-32.7 30.9-50.4 0-39.9-27-58.8-61.8-58.8C24 .8 2.7 22.4 2.7 64.1h27c0-29.4 15-38.7 35.4-38.7 22.8 0 34.5 12.3 34.5 33.3 0 21.9-22.5 37.5-39.3 38.1H43.8V122h16.5c21.9 0 40.2 10.5 40.2 43.8 0 30.9-13.2 41.7-37.8 41.7-25.2 0-34.8-11.4-34.8-38.7H0z"/>
</symbol><symbol id="icon-bra" viewBox="0 0 24 24">
    <style>
        .st0,.st1{stroke:#000;stroke-linejoin:round;stroke-miterlimit:10}.st0{fill:none}.st1{stroke-linecap:round}.st1,.st2{fill:none}
    </style>
    <g fill="none" stroke="#fff">
        <path d="M21.5 11c-5 2.5-8.4 6.7-9.5 8.2 1.1 1.7 3.1 2.9 5.3 2.9 3.4 0 6.2-2.8 6.2-6.2 0-1.8-.7-3.8-2-4.9z"/>
        <path d="M2.5 11c4.9 2.5 8.4 6.7 9.5 8.2-1.1 1.7-3.1 2.9-5.3 2.9-3.4 0-6.2-2.8-6.2-6.2 0-1.8.7-3.8 2-4.9z"/>
        <path d="M2.5 11V4"/>
        <path d="M21.5 11V4"/>
    </g>
    <path fill="none" d="M0 0h24v24H0z" id="invisible_shape"/>
</symbol><symbol id="icon-camera" viewBox="0 0 24 24">
    <g fill="none" stroke="#fff">
        <path d="M23.5 18.5c0 .5-.5 1-1 1h-21c-.6 0-1-.5-1-1v-12c0-.6.4-1 1-1h21c.5 0 1 .4 1 1v12z"/>
        <path d="M3 5.5v-1c0-.5.5-1 1-1h2c.6 0 1 .5 1 1v1"/>
        <path d="M.5 10.5H8"/>
        <path d="M.5 12.5H8"/>
        <path d="M.5 14.5H8"/>
        <circle cx="16.5" cy="12.5" r="5"/>
        <path d="M14.5 10.5h4v4h-4z"/>
    </g>
    <path fill="none" d="M0 0h24v24H0z"/>
</symbol><symbol id="icon-facebook" viewBox="0 0 10 19">
    <title>
        facebook
    </title>
    <path d="M9.766.157v2.946H8.014c-.64 0-1.071.134-1.295.402-.223.268-.335.67-.335 1.205v2.11h3.27l-.435 3.303H6.384v8.471H2.97v-8.47H.123V6.82H2.97V4.387c0-1.384.387-2.457 1.161-3.22C4.904.404 5.934.023 7.222.023c1.093 0 1.941.045 2.544.134z" fill="#000" fill-rule="evenodd"/>
</symbol><symbol id="icon-finland" viewBox="0 0 800 800">
    <style>
        .sdf{fill:red}
    </style>
    <path fill="#fff" d="M355.945 154.839h418.248v194.838H355.945z"/>
    <path class="sdf" fill="#FFF" d="M64.516 450.322H25.807v194.839H254.87V450.322H116.129c-7.127 0-12.903-5.777-12.903-12.903H77.419c0 7.126-5.775 12.903-12.903 12.903z"/>
    <path fill="#FFF" d="M25.807 154.839H255.3v194.838H25.807z"/>
    <path fill="#FFF" d="M355.515 450.322h418.679v194.839H355.515z"/>
    <path fill="#164FCE" d="M279.676 646.161V437.419c0-6.563-5.34-11.902-11.903-11.902H116.129c-6.563 0-11.903 5.339-11.903 11.902v1H76.419v-1c0-6.563-5.34-11.902-11.903-11.902H24.807v-51.033h243.396c6.563 0 11.903-5.34 11.903-11.903V153.839h51.032v208.742c0 6.563 5.34 11.903 11.903 11.903h432.151v51.033H342.611c-6.563 0-11.903 5.339-11.903 11.902v208.742h-51.032z"/>
    <path fill="#164FCE" d="M281.106 154.839v207.742c0 7.126-5.776 12.903-12.903 12.903H25.807v49.033h38.709c7.128 0 12.903 5.776 12.903 12.902h25.806c0-7.126 5.776-12.902 12.903-12.902h151.644c7.128 0 12.903 5.776 12.903 12.902v207.742h49.032V437.419c0-7.126 5.776-12.902 12.903-12.902h431.582v-49.033h-431.15c-7.128 0-12.903-5.777-12.903-12.903V154.839h-49.033z"/>
    <path d="M787.097 129.032H12.903C5.775 129.032 0 134.81 0 141.936v516.129c0 7.126 5.775 12.903 12.903 12.903h774.193c7.128 0 12.903-5.777 12.903-12.903V141.936c.001-7.126-5.774-12.904-12.902-12.904zm-12.904 220.645H355.945V154.839h418.248v194.838zm-431.151 25.807h431.151v49.033H342.611c-7.127 0-12.903 5.776-12.903 12.902v207.742h-49.032V437.419c0-7.126-5.775-12.902-12.903-12.902H116.129c-7.127 0-12.903 5.776-12.903 12.902s5.776 12.903 12.903 12.903H254.87v194.839H25.807V450.322h38.709c7.128 0 12.903-5.777 12.903-12.903s-5.775-12.902-12.903-12.902H25.807v-49.033h242.396c7.127 0 12.903-5.777 12.903-12.903V154.839h49.032v207.742c.001 7.126 5.776 12.903 12.904 12.903zM255.3 349.677H25.807V154.839H255.3v194.838zm100.215 295.484V450.322h418.679v194.839H355.515z"/>
</symbol><symbol id="icon-folder-video" viewBox="0 0 24 24">
    <path fill="none" stroke="#fff" d="M18.5 6.5v-2h-11l-2-2h-5v14"/>
    <path fill="none" stroke="#fff" d="M20.5 8.5v-2h-18v12"/>
    <path fill="none" stroke="#fff" d="M4.5 8.5h18v12h-18z"/>
    <path fill="none" stroke="#fff" d="M10.5 18.5v-8l6.8 4-6.8 4z"/>
    <g>
        <path fill="none" d="M0 0h24v24H0z"/>
    </g>
</symbol><symbol id="icon-headphone" viewBox="0 0 24 24">
    <g fill="none" stroke="#fff" stroke-linejoin="round" stroke-miterlimit="10">
        <path stroke-linecap="round" d="M2.5 14.5a2 2 0 0 1 0-4"/>
        <path stroke-linecap="round" d="M14.5 21.5h2c1.934 0 3.5-1.066 3.5-3v-1.064"/>
        <circle stroke-linecap="round" cx="13" cy="21.5" r="1.5"/>
        <path stroke-linecap="round" d="M6.5 17.5h-2a2 2 0 0 1-2-2v-6a2 2 0 0 1 2-2h2v10z"/>
        <path stroke-linecap="round" d="M21.5 14.5a2 2 0 0 0 0-4"/>
        <path stroke-linecap="round" d="M17.5 17.5h2a2 2 0 0 0 2-2v-6a2 2 0 0 0-2-2h-2v10z"/>
        <path d="M5 7.5a7 7 0 1 1 14 0"/>
    </g>
    <g>
        <path fill="none" d="M0 0h24v24H0z"/>
    </g>
</symbol><symbol id="icon-key" viewBox="0 0 380.2 380.2">
    <path stroke="#ffccd5" fill="#ffccd5" d="M163.2 191.7v103.4h-25.3c-8.3 0-15 6.7-15 15V331c0 8.3 6.7 15 15 15h25.3v7.7c0 14.6 9.8 26.5 21.9 26.5 12.1 0 21.9-11.9 21.9-26.5V194c45.9-8 80.8-48.2 80.8-96.3C287.8 43.9 244 0 190.1 0S92.3 43.9 92.3 97.8c0 44.5 30 82.2 70.9 93.9zm26.9-38.9c-30.4 0-55-24.6-55-55s24.6-55 55-55 55 24.6 55 55-24.6 55-55 55z"/>
</symbol><symbol id="icon-programming-website" viewBox="0 0 24 24">
    <style>
        .st0{fill:none;stroke-linecap:round}.st0,.st1{stroke:#000;stroke-linejoin:round;stroke-miterlimit:10}.st1,.st2{fill:none}
    </style>
    <g fill="none" stroke="#fff">
        <path d="M8.6 7.1l-.9 5.1-.8-2.6-.8 2.6-.8-5.1"/>
        <path d="M13.7 7.1l-.9 5.1-.8-2.6-.8 2.6-.9-5.1"/>
        <path d="M18.7 7.1l-.8 5.1-.8-2.6-.8 2.6-.9-5.1"/>
    </g>
    <g fill="none" stroke="#fff">
        <path d="M23.5 18.9c0 .9-.7 1.6-1.5 1.6H2c-.8 0-1.5-.7-1.5-1.6V4.1c0-.9.7-1.6 1.5-1.6h20c.8 0 1.5.7 1.5 1.6v14.8z"/>
        <path d="M5 22.5h14"/>
        <path d="M11.5 20.5v2"/>
        <circle cx="12" cy="18.5" r=".5"/>
        <path d="M.5 16.5h23"/>
    </g>
    <g>
        <path fill="none" d="M0 0h24v24H0z"/>
    </g>
</symbol><symbol id="icon-united-kingdom" viewBox="0 0 512 512">
    <path fill="#f0f0f0" d="M0 85.333h512V426.67H0z"/>
    <path fill="#d80027" d="M288 85.33h-64v138.666H0v64h224v138.666h64V287.996h224v-64H288z"/>
    <g fill="#0052b4">
        <path d="M393.785 315.358L512 381.034v-65.676z"/>
        <path d="M311.652 315.358L512 426.662v-31.474l-143.693-79.83z"/>
        <path d="M458.634 426.662l-146.982-81.664v81.664z"/>
    </g>
    <path fill="#f0f0f0" d="M311.652 315.358L512 426.662v-31.474l-143.693-79.83z"/>
    <path fill="#d80027" d="M311.652 315.358L512 426.662v-31.474l-143.693-79.83z"/>
    <g fill="#0052b4">
        <path d="M90.341 315.356L0 365.546v-50.19z"/>
        <path d="M200.348 329.51v97.151H25.491z"/>
    </g>
    <path fill="#d80027" d="M143.693 315.358L0 395.188v31.474l200.348-111.304z"/>
    <g fill="#0052b4">
        <path d="M118.215 196.634L0 130.958v65.676z"/>
        <path d="M200.348 196.634L0 85.33v31.474l143.693 79.83z"/>
        <path d="M53.366 85.33l146.982 81.664V85.33z"/>
    </g>
    <path fill="#f0f0f0" d="M200.348 196.634L0 85.33v31.474l143.693 79.83z"/>
    <path fill="#d80027" d="M200.348 196.634L0 85.33v31.474l143.693 79.83z"/>
    <g fill="#0052b4">
        <path d="M421.659 196.636L512 146.446v50.19z"/>
        <path d="M311.652 182.482V85.331h174.857z"/>
    </g>
    <path fill="#d80027" d="M368.307 196.634L512 116.804V85.33L311.652 196.634z"/>
</symbol><symbol id="icon-video-meeting-circle" viewBox="0 0 24 24">
    <style>
        .st0{fill:none;stroke-linecap:round}.st0,.st1{stroke:#000;stroke-linejoin:round;stroke-miterlimit:10}.st1,.st2{fill:none}
    </style>
    <g fill="none" stroke="#fff">
        <path d="M14.5 16.5h-9v-9h9V11l4-2.5v7l-4-2.5z"/>
        <circle cx="12" cy="12" r="11.5"/>
    </g>
    <g>
        <path fill="none" d="M0 0h24v24H0z"/>
    </g>
</symbol></svg>